<?xml version="1.0" encoding="utf-8"?>
<!-- Generator: Adobe Illustrator 22.0.1, SVG Export Plug-In . SVG Version: 6.00 Build 0)  -->
<svg version="1.1" id="Layer_1" xmlns="http://www.w3.org/2000/svg" xmlns:xlink="http://www.w3.org/1999/xlink" x="0px" y="0px"
	 viewBox="0 0 1920 1080" style="enable-background:new 0 0 1920 1080;" xml:space="preserve">
<style type="text/css">
	.st0{fill:#0322FF;}
	.st1{fill:#00C9FF;}
	.st2{fill:none;}
	.st3{fill:#F4810F;}
</style>
<g>
	<circle class="st0" cx="951.4" cy="566.2" r="331.9"/>
	<path class="st1" d="M1156.2,566.2c0,113.1-91.7,204.8-204.8,204.8c-113.1,0-204.8-91.7-204.8-204.8
		c0-113.1,91.7-204.8,204.8-204.8C1064.5,361.4,1156.2,453.1,1156.2,566.2L1156.2,566.2z M1156.2,566.2"/>
	<g>
		<path id="SVGID_x5F_1_x5F_" class="st2" d="M705.2,566.2c0-136,110.2-246.2,246.2-246.2s246.2,110.2,246.2,246.2
			s-110.2,246.2-246.2,246.2S705.2,702.2,705.2,566.2z"/>
		<text>		<textPath  xlink:href="#SVGID_x5F_1_x5F_" startOffset="33.3333%">
<tspan  class="st3" style="font-family:'Aldrich'; font-size:49px;">ALL OVER THE WORLD</tspan>		</textPath>
</text>
	</g>
	<g>
		<path class="st3" d="M951.4,905.7c-90.7,0-175.9-35.3-240-99.4c-64.1-64.1-99.4-149.3-99.4-240s35.3-175.9,99.4-240
			c64.1-64.1,149.3-99.4,240-99.4s175.9,35.3,240,99.4c64.1,64.1,99.4,149.3,99.4,240s-35.3,175.9-99.4,240
			C1127.3,870.3,1042,905.7,951.4,905.7z M951.4,241.9c-86.6,0-168.1,33.7-229.3,95c-61.2,61.2-95,142.7-95,229.3
			s33.7,168.1,95,229.3c61.2,61.2,142.7,95,229.3,95s168.1-33.7,229.3-95c61.2-61.2,95-142.7,95-229.3s-33.7-168.1-95-229.3
			C1119.4,275.7,1038,241.9,951.4,241.9z"/>
		<g>
			<path class="st3" d="M1156.2,566.2c0-41.1-12.1-79.4-32.9-111.4c0,0-11.7,17.1-9.5,28c2.2,11,15.1,11.8,13.8,19.9
				c-1.3,8.1-10.8-2.3-22.5,18.9c-11.7,21.2-5.8,50.5,11,52.7C1132.8,576.5,1156.2,566.2,1156.2,566.2L1156.2,566.2z M1156.2,566.2"
				/>
			<path class="st3" d="M1005.2,368.6c23.8,6.5,45.9,17.1,65.5,31.2c0,0-23.7-3.9-32.7,4.1c-9,8-22.1,27.1-32.7,0
				C994.5,376.8,1005.2,368.6,1005.2,368.6L1005.2,368.6z M1005.2,368.6"/>
			<path class="st3" d="M797.4,431.2c37.5-42.8,92.6-69.8,154-69.8c0,0-13.9,8.4,12.4,22.7c26.3,14.3,14.3,20.8,8.8,25.2
				c-5.5,4.4-15-8.8-21.2-17.6c-6.2-8.8-32.9-22.3-53.4-15c-20.5,7.3-38,12.7-35.1,19.5c2.9,6.8,38-6.4,51.2-5.6
				c13.2,0.7,8.8,8.8-3.7,18.3c-12.4,9.5-13.9,21.2-0.7,28.5c13.2,7.3,29.3,8.1,32.9,3.7c3.7-4.4-6.6-32.9,18.3-20.5
				c24.9,12.4,45.4,19.8,24.9,38c-20.5,18.3-43.9,38.8-44.6,50.5c-0.7,11.7,7.3,21.2,2.9,21.9c-4.4,0.7-8.4-4.8-11.3-8.8
				c-2.9-4-16.5-5.5-23-2.9c-6.6,2.6-19,12.4-12.1,21.9c7,9.5,16.5,5.1,26,9.5c9.5,4.4,18.4,21.1,16.6,24.9
				c-1.8,3.8-9.9-1-16.6-13.9c-6.6-12.9-19.1-4.4-27.8-6.6c-8.8-2.2-15.3-3.7-24.1-19c-8.8-15.4-26.9-19.7-34.4-28.5
				c-21.3-25.4-19.8-44.6-24.1-53.4C808.7,445.5,797.4,431.2,797.4,431.2L797.4,431.2z M797.4,431.2"/>
			<path class="st3" d="M971.1,569.2c0,0,21.9,2.2,32.9,11.7c11,9.5,12.4,13.2,29.3,16.8c16.8,3.7,24.1,13.2,13.2,31.4
				c-11,18.3-30.7,47.5-40.2,56.3c-9.5,8.8-21.2,16.1-25.6,30.7c-4.4,14.6-5.9,23.4,3.7,29.3c0,0-5.1,12.4-16.8-3.7
				c-11.7-16.1-2.2-35.1,0-46.1c2.2-11,8-43.9,4.4-51.9c-3.7-8.1-20.5-13.2-24.9-30C942.6,596.9,950.3,564.2,971.1,569.2
				L971.1,569.2z M971.1,569.2"/>
		</g>
		<path id="SVGID_x5F_2_x5F_" class="st2" d="M1197.6,566.2c0,136-110.2,246.2-246.2,246.2S705.2,702.2,705.2,566.2
			S815.4,320,951.4,320S1197.6,430.3,1197.6,566.2z"/>
		<text>		<textPath  xlink:href="#SVGID_x5F_2_x5F_" startOffset="33.3333%">
<tspan  class="st3" style="font-family:'Aldrich'; font-size:75px;">JOB LINK CORPORATE</tspan>		</textPath>
</text>
		<g>
			<polygon class="st3" points="1210.4,604 1218.1,627.8 1243.2,627.8 1222.9,642.6 1230.6,666.4 1210.4,651.7 1190.1,666.4 
				1197.8,642.6 1177.6,627.8 1202.6,627.8 			"/>
			<polygon class="st3" points="692.4,604 700.1,627.8 725.2,627.8 704.9,642.6 712.6,666.4 692.4,651.7 672.1,666.4 679.8,642.6 
				659.6,627.8 684.6,627.8 			"/>
		</g>
	</g>
</g>
</svg>
